<svg xmlns="http://www.w3.org/2000/svg" xmlns:xlink="http://www.w3.org/1999/xlink" width="48" height="32" viewBox="0 0 48 32">
    <defs>
        <path id="a" d="M.077 3.648h7.118c0-2-1.607-3.645-3.559-3.645-1.952 0-3.56 1.645-3.56 3.645z"/>
        <path id="c" d="M.077 3.648h7.118c0-2-1.607-3.645-3.559-3.645-1.952 0-3.56 1.645-3.56 3.645"/>
        <path id="e" d="M0 3.648h7.193c0-2-1.624-3.645-3.597-3.645C1.623.003 0 1.648 0 3.648z"/>
        <path id="g" d="M0 3.648h7.193c0-2-1.624-3.645-3.597-3.645C1.623.003 0 1.648 0 3.648"/>
        <path id="i" d="M0 .044h25.252v25.725H0z"/>
        <path id="k" d="M.001.098h19.076v9.965H.001z"/>
        <path id="m" d="M.044.098H19.12v9.965H.044z"/>
        <path id="o" d="M0 .098h19.076v9.965H0z"/>
        <path id="q" d="M0 .098h18.307v9.965H0z"/>
        <path id="s" d="M12.664.045C5.653.062-.016 5.84 0 12.95c.017 7.11 5.714 12.86 12.725 12.842 7.01-.017 12.68-5.795 12.664-12.905C25.37 5.796 19.703.057 12.717.045"/>
        <path id="u" d="M12.664.045C5.653.062-.016 5.84 0 12.95c.017 7.11 5.714 12.86 12.725 12.842 7.01-.017 12.68-5.795 12.664-12.905C25.37 5.796 19.703.057 12.717.045"/>
        <path id="w" d="M12.664.045C5.653.062-.016 5.84 0 12.95c.017 7.11 5.714 12.86 12.725 12.842 7.01-.017 12.68-5.795 12.664-12.905C25.37 5.796 19.703.057 12.717.045"/>
        <path id="y" d="M12.664.045C5.653.062-.016 5.84 0 12.95c.017 7.11 5.714 12.86 12.725 12.842 7.01-.017 12.68-5.795 12.664-12.905C25.37 5.796 19.703.057 12.717.045"/>
        <path id="A" d="M12.664.045C5.653.062-.016 5.84 0 12.95c.017 7.11 5.714 12.86 12.725 12.842 7.01-.017 12.68-5.795 12.664-12.905"/>
    </defs>
    <g fill="none" fill-rule="evenodd">
        <path fill="#148AF4" d="M23.389 31.179h-3.597c0-1.993 1.624-3.632 3.597-3.632 1.973 0 3.596 1.64 3.596 3.632H23.39z"/>
        <path fill="#FFF" d="M26.897 31.598H19.88a.228.228 0 0 1-.227-.23v-.17c0-.126.102-.229.227-.229h7.016c.125 0 .227.103.227.23v.17c0 .127-.102.229-.227.229"/>
        <g transform="translate(19.812 27.41)">
            <mask id="b" fill="#fff">
                <use xlink:href="#a"/>
            </mask>
            <path fill="#FFF" d="M5.073 3.648H2.952c0-1.192.958-2.173 2.121-2.173 1.164 0 2.122.98 2.122 2.173H5.073z" mask="url(#b)"/>
        </g>
        <g transform="translate(19.812 27.41)">
            <mask id="d" fill="#fff">
                <use xlink:href="#c"/>
            </mask>
            <path fill="#FFF" d="M2.952 1.784a.096.096 0 0 1-.048-.014.099.099 0 0 1-.035-.134c.332-.588.9-.9 1.639-.9.513 0 .923.15.94.156a.1.1 0 0 1 .058.126.098.098 0 0 1-.123.06 2.828 2.828 0 0 0-.875-.145c-.677 0-1.173.27-1.473.801a.095.095 0 0 1-.083.05" mask="url(#d)"/>
        </g>
        <path fill="#148AF4" d="M34.13 31.179h-3.572c0-1.993 1.612-3.632 3.572-3.632s3.572 1.64 3.572 3.632H34.13z"/>
        <path fill="#FFF" d="M37.614 31.598h-6.968a.227.227 0 0 1-.226-.23v-.17c0-.126.101-.229.226-.229h6.968c.124 0 .225.103.225.23v.17c0 .127-.1.229-.225.229"/>
        <g transform="translate(30.449 27.41)">
            <mask id="f" fill="#fff">
                <use xlink:href="#e"/>
            </mask>
            <path fill="#FFF" d="M5.049 3.648H2.905c0-1.192.968-2.173 2.144-2.173 1.176 0 2.144.98 2.144 2.173H5.049z" mask="url(#f)"/>
        </g>
        <g transform="translate(30.449 27.41)">
            <mask id="h" fill="#fff">
                <use xlink:href="#g"/>
            </mask>
            <path fill="#FFF" d="M2.905 1.784a.098.098 0 0 1-.084-.148c.336-.588.909-.9 1.657-.9.518 0 .932.15.95.156.05.018.076.074.058.126a.099.099 0 0 1-.124.06 2.884 2.884 0 0 0-.884-.145c-.684 0-1.186.27-1.49.801a.096.096 0 0 1-.083.05" mask="url(#h)"/>
        </g>
        <g>
            <path fill="#FFF" d="M42.603 10.328a2.354 2.354 0 0 0 3.349.386 2.46 2.46 0 0 0 .379-3.412 2.354 2.354 0 0 0-3.35-.386 2.459 2.459 0 0 0-.378 3.412"/>
            <path fill="#FFF" d="M45.666 9.47a.595.595 0 0 1-.542-.354.612.612 0 0 1 .294-.805l1.72-.804a.59.59 0 0 1 .79.3.611.611 0 0 1-.293.804l-1.721.803a.578.578 0 0 1-.248.056"/>
            <path fill="#FFF" d="M45.427 8.632a.59.59 0 0 1-.396-.153.616.616 0 0 1-.049-.857L46.24 6.18a.588.588 0 0 1 .842-.05.616.616 0 0 1 .049.857l-1.258 1.44a.59.59 0 0 1-.446.204"/>
            <path fill="#FFF" d="M44.817 8.082a.607.607 0 0 1-.58-.751l.45-1.874a.594.594 0 0 1 .72-.446c.32.08.516.408.438.734l-.45 1.873a.598.598 0 0 1-.578.464M43.559 8.03a.6.6 0 0 1-.595-.584l-.07-1.927a.602.602 0 0 1 .573-.629.59.59 0 0 1 .618.584l.07 1.927a.602.602 0 0 1-.574.629h-.022"/>
            <path fill="#FFF" d="M43.055 8.91c-.09 0-.18-.021-.265-.064l-1.333-.677a.612.612 0 0 1-.268-.814.59.59 0 0 1 .799-.272l1.333.676c.295.15.415.513.268.814a.594.594 0 0 1-.534.336"/>
            <g transform="translate(15.786)">
                <mask id="j" fill="#fff">
                    <use xlink:href="#i"/>
                </mask>
                <path fill="#FEDD02" d="M25.252 12.875c.017 7.104-5.622 12.876-12.595 12.894C5.684 25.785.017 20.04 0 12.937-.017 5.833 5.623.06 12.596.044c6.973-.017 12.64 5.727 12.656 12.831" mask="url(#j)"/>
            </g>
            <path fill="#0D98FF" d="M6.172 23.556h1.383s.639-4.215 1.55-4.868v-.447s-2.225 1.881-2.933 5.315M15.352 23.556h-.982s-1.948-4.284-2.858-4.937v-.447s3.132 1.95 3.84 5.384"/>
            <g transform="translate(2.982 21.854)">
                <mask id="l" fill="#fff">
                    <use xlink:href="#k"/>
                </mask>
                <path fill="#6CC7FF" d="M.737 10.063h17.279c.615 0 1.1-.666 1.059-1.452-.108-2.129-.454-5.986-1.546-7.308-1.538-1.861-14.234-1.33-15.468 0C.721 2.75.196 6.88.006 9.018c-.05.557.292 1.045.73 1.045" mask="url(#l)"/>
            </g>
            <g transform="translate(2.265 21.854)">
                <mask id="n" fill="#fff">
                    <use xlink:href="#m"/>
                </mask>
                <path fill="#0D98FF" d="M.78 10.063h17.279c.615 0 1.099-.666 1.059-1.452-.109-2.129-.454-5.986-1.546-7.308-1.538-1.861-14.234-1.33-15.468 0C.764 2.75.24 6.88.048 9.018c-.05.557.293 1.045.732 1.045" mask="url(#n)"/>
            </g>
            <g transform="translate(0 21.854)">
                <mask id="p" fill="#fff">
                    <use xlink:href="#o"/>
                </mask>
                <path fill="#6CC7FF" d="M.736 10.063h17.279c.615 0 1.099-.666 1.06-1.452-.11-2.129-.455-5.986-1.547-7.308-1.538-1.861-14.234-1.33-15.468 0C.72 2.75.195 6.88.005 9.018c-.05.557.293 1.045.731 1.045" mask="url(#p)"/>
            </g>
            <g transform="translate(0 21.854)">
                <mask id="r" fill="#fff">
                    <use xlink:href="#q"/>
                </mask>
                <path fill="#0064D2" d="M.736 10.063h16.51c.614 0 1.099-.666 1.058-1.452-.108-2.129-.454-5.986-1.545-7.308-1.539-1.861-14.235-1.33-15.468 0C-.049 2.75.195 6.88.005 9.018c-.05.557.293 1.045.731 1.045" mask="url(#r)"/>
            </g>
            <path fill="#0D98FF" d="M4.173 24.426c2.221-.76 8.36-.481 9.414 0 .8.366 1.253 4.105 1.006 5.879-.074.531-.52.925-1.047.925H4.25c-.537 0-.99-.408-1.051-.952-.203-1.786-.07-5.495.973-5.852"/>
            <path fill="#6CC7FF" d="M4.062 24.426c1.986-.76 7.478-.481 8.42 0 .716.366 1.12 4.105.9 5.879-.066.531-.465.925-.937.925H4.132c-.48 0-.886-.408-.94-.952-.182-1.786-.064-5.495.87-5.852"/>
            <path fill="#0064D2" d="M8.79 26.351c-2.055 0-4.058-.06-4.088-.06a.154.154 0 0 1-.148-.16.153.153 0 0 1 .152-.15h.005c.045.001 4.542.135 6.97 0 .08-.013.154.06.159.146a.153.153 0 0 1-.143.163c-.818.046-1.87.061-2.906.061"/>
            <path fill="#CAE4FC" d="M11.247 27.794a.268.268 0 0 1-.264-.27v-1.088c0-.148.119-.27.264-.27.145 0 .264.122.264.27v1.089c0 .148-.119.269-.264.269"/>
            <path fill="#0064D2" d="M19.393 23.8h-.638s-.185-1.848-6.307-1.848h.759s5.46 0 6.186 1.847"/>
            <path fill="#CAE4FC" d="M19.266 25.429a.323.323 0 0 1-.36-.283l-.164-1.314a.328.328 0 0 1 .279-.366.324.324 0 0 1 .359.284l.164 1.313a.327.327 0 0 1-.278.366"/>
            <path fill="#6CC7FF" d="M4.774 23.556h1.383s1.885-4.284 2.796-4.937v-.447s-3.47 1.95-4.18 5.384M13.415 23.556h-1.383s.597-4.549-.604-4.892l-.026-.543s1.78.842 2.013 5.435"/>
            <path fill="#0064D2" d="M11.244 18.81H9.052a.27.27 0 0 1-.267-.273v-.298c0-.15.12-.273.267-.273h2.192a.27.27 0 0 1 .267.273v.298a.27.27 0 0 1-.267.273"/>
            <path fill="#FFF" d="M11.357 19.09c-1.1.502-2.39.002-2.884-1.119-.494-1.12-.002-2.435 1.097-2.938a2.166 2.166 0 0 1 2.884 1.119c.494 1.12.002 2.435-1.097 2.938"/>
        </g>
        <g>
            <g transform="translate(14.759 .405)">
                <mask id="t" fill="#fff">
                    <use xlink:href="#s"/>
                </mask>
                <path fill="#FFF" d="M5.089 9.411l17.4-.043c.783-.002 1.281.846.91 1.545-1.066 2.001-3.698 5.234-9.594 5.249-5.896.015-8.543-3.206-9.618-5.202-.375-.698.119-1.547.902-1.549" mask="url(#t)"/>
            </g>
            <g transform="translate(14.759 .405)">
                <mask id="v" fill="#fff">
                    <use xlink:href="#u"/>
                </mask>
                <path fill="#0264D2" d="M21.844 6.876a.914.914 0 0 1-.905.922.914.914 0 0 1-.91-.918.914.914 0 0 1 .906-.923.914.914 0 0 1 .91.919" mask="url(#v)"/>
            </g>
            <g transform="translate(14.759 .405)">
                <mask id="x" fill="#fff">
                    <use xlink:href="#w"/>
                </mask>
                <path fill="#FFF" d="M21.1 6.443a.26.26 0 0 1-.258.263.26.26 0 0 1-.259-.261.26.26 0 0 1 .258-.262.26.26 0 0 1 .259.26" mask="url(#x)"/>
            </g>
            <g transform="translate(14.759 .405)">
                <mask id="z" fill="#fff">
                    <use xlink:href="#y"/>
                </mask>
                <path fill="#FFF" d="M21.58 6.54c0 .09-.072.164-.161.164a.164.164 0 0 1-.163-.163c0-.091.072-.165.162-.165.09 0 .162.073.162.164" mask="url(#z)"/>
            </g>
            <g transform="translate(14.759 .405)">
                <mask id="B" fill="#fff">
                    <use xlink:href="#A"/>
                </mask>
                <path fill="#0264D2" d="M6.807 7.12a.337.337 0 0 1-.039-.469c.018-.021.439-.518 1.107-.567.456-.032.91.146 1.338.533a.336.336 0 0 1 .027.47.325.325 0 0 1-.464.028c-.291-.263-.576-.382-.854-.367-.389.03-.649.33-.651.333a.326.326 0 0 1-.464.04z" mask="url(#B)"/>
            </g>
        </g>
        <path fill="#FFF" d="M28.383.405H28.233l-.01.001H28.175l-.004.001h-.017H28.14l-.015.001H28.085L28.06.41H28.02l-.025.001h-.01a12.093 12.093 0 0 0-7.37 2.817.19.19 0 0 0-.026.262.183.183 0 0 0 .142.069c.04 0 .08-.015.115-.043A11.806 11.806 0 0 1 28.354.778h.03a11.842 11.842 0 0 1 1.16.057.184.184 0 0 0 .181-.17.185.185 0 0 0-.163-.203 12.08 12.08 0 0 0-.99-.055h-.029l-.02-.001h-.017H28.453 28.384zm10.37 5.974a.18.18 0 0 0-.094.027.189.189 0 0 0-.06.257 12.392 12.392 0 0 1 1.723 6.292c.001.575-.037 1.153-.113 1.718a.186.186 0 0 0 .18.213c.09 0 .169-.068.181-.161v-.001l.002-.006v-.001-.007l.002-.012v-.001l.001-.006.001-.007v-.006l.001-.002v-.005l.001-.001v-.007l.002-.005v-.002a.15.15 0 0 0 .001-.012v-.002l.001-.005v-.001l.001-.006v-.001-.005l.001-.002v-.006l.001-.006v-.002l.001-.005v-.001l.001-.006.001-.007v-.001-.006l.002-.006v-.002-.005-.001l.002-.006v-.008l.001-.005v-.002l.001-.005v-.002l.001-.005v-.002-.005l.002-.007v-.002-.006l.001-.006v-.001l.001-.005V14.5v-.006l.001-.006v-.002l.001-.004v-.002-.006l.002-.006v-.002-.006l.001-.006v-.002l.001-.004v-.002-.006l.002-.006v-.002-.007l.001-.005v-.002l.001-.005v-.002-.004-.002l.002-.006v-.002-.004-.002-.005l.001-.001v-.006l.001-.002v-.006l.001-.006v-.002l.001-.004v-.002-.004l.001-.002v-.006-.003-.003l.001-.003v-.004l.001-.003v-.007-.003l.001-.003v-.005l.001-.003v-.003-.003l.001-.004v-.004l.001-.004v-.002-.003-.004l.001-.004v-.004l.001-.002v-.007-.003l.001-.005v-.003l.001-.003v-.003-.008l.001-.003v-.003l.001-.003v-.003-.008l.001-.003v-.004l.001-.003v-.004-.007l.001-.002v-.004l.001-.003v-.007-.004l.001-.003v-.006-.005l.001-.003v-.006l.001-.006v-.002-.004l.001-.002v-.012l.001-.002v-.006l.002-.008v-.007-.004l.001-.008v-.002-.004l.001-.001v-.014h.001v-.005l.001-.01v-.006l.002-.014v-.005l.002-.015v-.015l.001-.005.001-.015.002-.02.002-.035c.018-.246.03-.494.033-.744v-.02-.031-.046l.001-.008V12.886v-.043V12.814l-.001-.004v-.023V12.761l-.001-.003v-.021-.017V12.7 12.68l-.001-.001v-.014-.006l-.001-.015c-.059-2.26-.7-4.371-1.777-6.182a.181.181 0 0 0-.152-.084zm1.516 8.859a.184.184 0 0 0-.179.15 12.198 12.198 0 0 1-3.492 6.453.19.19 0 0 0-.007.265.181.181 0 0 0 .258.007 12.617 12.617 0 0 0 1.628-1.933l.01-.015.009-.012.002-.004.008-.012.002-.004.008-.011.003-.004.005-.008.003-.003.003-.005.005-.007.002-.004.003-.004.005-.008.003-.003v-.001l.005-.008.002-.003.001-.001.002-.003.003-.004.002-.004.001-.001.002-.003.002-.004h.001l.002-.004.003-.004.002-.004h.001l.002-.003.003-.005.002-.003v-.002l.002-.002.001-.001.002-.003.003-.004v-.001l.002-.003.001-.001.002-.003.002-.004.003-.003.001-.003.002-.001v-.002l.002-.002v-.002c.002 0 .002-.001.003-.002l.001-.003.002-.002.002-.003v-.002l.002-.002v-.001l.003-.004.001-.001.002-.002v-.002c.001 0 .002 0 .002-.002l.001-.001.002-.002v-.002l.003-.003v-.002l.002-.002.001-.002.001-.001.001-.002.002-.002v-.002c.002 0 .002-.002.003-.003v-.002l.002-.002.001-.001.002-.002v-.002l.003-.002v-.001l.002-.004v-.001l.002-.002.001-.002.001-.002.002-.002.001-.002.002-.002.001-.002.001-.002.001-.002.002-.002v-.001l.002-.002v-.002l.003-.003.001-.002.001-.002.002-.001v-.003l.002-.001.004-.007.001-.002.002-.002c0-.002.001-.003.002-.003l.004-.007.001-.002h.001c0-.002.001-.003.002-.003v-.002l.002-.002.004-.006c0-.002 0-.002.002-.003v-.001l.002-.002v-.001l.005-.008.001-.001.002-.003v-.001l.002-.002v-.001l.005-.008v-.001c.002 0 .002-.002.002-.003h.001l.002-.003.005-.009h.001l.002-.004.002-.003.005-.009.003-.003a.198.198 0 0 0 .008-.013l.002-.003.006-.01.001-.002.003-.004a.198.198 0 0 1 .015-.025l.002-.003a.08.08 0 0 0 .008-.013l.002-.003.008-.013.01-.016a12.65 12.65 0 0 0 1.352-3.026l.005-.018v-.004a.277.277 0 0 1 .005-.014l.004-.014v-.001l.002-.003.004-.015.001-.004.004-.014.001-.004.003-.01v-.001l.002-.004v-.003l.001-.001.003-.01v-.004l.001-.001.001-.002v-.001l.003-.01v-.002l.001-.002v-.001l.001-.003.002-.007.001-.003v-.002l.001-.002v-.002l.002-.003v-.003l.001-.002v-.002l.001-.003v-.002l.002-.002v-.002-.002l.002-.004v-.002l.001-.002v-.003l.001-.001v-.002l.001-.003v-.001l.002-.004v-.002l.001-.003v-.001l.001-.003v-.002l.001-.003v-.001l.002-.004v-.002l.001-.002v-.002l.001-.003.002-.005v-.001l.001-.004v-.001l.002-.003V16.4v-.003l.001-.002v-.004h.001l.001-.005.001-.003v-.002l.002-.004.001-.005.001-.004v-.001l.002-.003v-.002l.002-.009.002-.004v-.004l.001-.001.003-.01v-.004l.002-.004.002-.01.002-.004a.31.31 0 0 1 .003-.014l.002-.005.004-.014.004-.019.005-.019.005-.019c.066-.25.123-.504.173-.76a.187.187 0 0 0-.18-.223zm-21.032 5.694a.18.18 0 0 0-.12.046.19.19 0 0 0-.018.264 12.354 12.354 0 0 0 4.49 3.332c.01.005.02.01.031.013l.004.002.004.002a.365.365 0 0 0 .019.008l.003.001.004.002.004.001.004.002.019.008a.02.02 0 0 1 .003.002h.001l.003.002h.001l.003.001h.001l.003.001.015.007c.002 0 .003 0 .004.002h.003l.002.002.003.001.004.002.014.005.004.002h.001l.003.002h.001l.003.001h.001l.003.002.015.007.004.001.003.001h.002l.002.002h.002l.002.002h.002l.003.001.014.007.004.001h.001l.003.002h.001l.003.002h.004l.001.001.003.001c.003.002.005.003.008.003l.002.002h.002l.002.001.002.001.002.001h.002l.002.002h.002l.002.002h.002l.003.001.011.004.003.002h.001l.003.001.001.001h.003l.002.002h.002l.002.001.002.001.002.001h.002l.001.001.006.003h.001l.002.001h.002l.002.001.002.001.002.001h.002l.003.002h.002l.002.002h.001l.003.001.002.001h.002l.004.003h.002l.002.001.002.001h.002l.002.002h.002l.002.001.002.001h.003l.002.001.002.001.002.001h.002l.004.003.004.001h.001l.003.002h.001l.003.001.002.001.002.001.002.001h.003l.001.002h.003l.001.001.004.002a.02.02 0 0 1 .006.002H24l.001.001.003.001h.001l.003.002h.001l.003.002h.002l.002.001.002.001.003.001h.001l.004.002h.001l.003.002h.002l.003.001h.002l.002.002h.001l.003.002h.002l.002.001h.002l.003.002h.001l.008.004h.001l.004.001.004.002.004.002h.001l.003.001h.002l.003.002.01.003.003.002h.001l.004.002.004.001.004.002h.001l.004.002.009.003.004.001h.001l.004.002.004.002h.001l.003.001h.001l.004.002.005.002.008.003.004.002h.002l.003.002h.001l.003.001.004.002h.002l.003.001.014.006.004.001.004.002h.001c.001 0 .002 0 .003.002a.834.834 0 0 1 .022.008h.001l.004.001c.002 0 .003 0 .005.002l.004.001.018.007c.001 0 .003 0 .004.002h.005l.004.003.022.008h.001l.004.001.004.002c.002 0 .003 0 .005.002.006.001.012.003.017.006a.05.05 0 0 1 .005.001l.004.002.005.001.022.008.004.002.005.001.027.01.009.003.026.01h.005v.001l.004.001.058.02c.576.196 1.17.349 1.78.456a.184.184 0 0 0 .211-.153.187.187 0 0 0-.15-.215c-2.69-.474-5.163-1.9-6.966-4.016a.18.18 0 0 0-.138-.065zM16.27 13.33h-.007a.186.186 0 0 0-.175.195 12.695 12.695 0 0 0 2.303 6.806l.019.027.008.012.003.003.006.009.002.002v.001l.002.003.006.008.002.004.01.011.001.004c.003.002.004.006.006.008v.001l.002.002h.001l.002.003a.143.143 0 0 0 .006.009l.003.003v.001a.05.05 0 0 1 .005.008h.001l.002.003.002.003.006.008v.001l.003.003.005.008.002.001v.002c.002 0 .002 0 .002.002l.002.002.003.005.002.003.001.001.002.002v.001l.003.002v.001l.003.004v.002l.003.002v.001l.002.002v.002c.002 0 .003.002.004.004l.002.002v.002l.002.002.001.001.002.002v.002l.004.003v.001l.002.002v.002l.002.001.001.002.001.002.002.002.002.003.001.002h.001l.002.003.001.001.002.003.001.001.002.003v.002c.001 0 .002 0 .002.002l.001.001.002.001.001.002.003.003.002.004v.001l.003.003.003.004.002.003.001.001.002.003.001.001.002.003.003.004.003.003.002.004.006.008.003.004.002.003c.003.003.005.005.006.008l.003.004.003.003.005.008.004.004.005.007.003.004.008.01a.18.18 0 0 0 .256.034.19.19 0 0 0 .033-.262 12.283 12.283 0 0 1-2.471-6.928.184.184 0 0 0-.183-.179z"/>
    </g>
</svg>
