<svg xmlns="http://www.w3.org/2000/svg" xmlns:xlink="http://www.w3.org/1999/xlink" width="19" height="19" viewBox="0 0 19 19">
    <defs>
        <path id="a" d="M0 .027h18.932v18.931H0z"/>
    </defs>
    <g fill="none" fill-rule="evenodd">
        <g transform="translate(0 .063)">
            <mask id="b" fill="#fff">
                <use xlink:href="#a"/>
            </mask>
            <path fill="#0064D2" d="M18.932 16.98a1.979 1.979 0 0 1-1.979 1.978H1.978A1.979 1.979 0 0 1 0 16.98V2.005C0 .912.886.027 1.978.027h14.975c1.093 0 1.979.885 1.979 1.978V16.98z" mask="url(#b)"/>
        </g>
        <path fill="#FEDD00" d="M12.913 6.677a3.65 3.65 0 1 1-7.3 0 3.65 3.65 0 0 1 7.3 0"/>
        <path fill="#FFF" d="M5.216 15.665c0 .054-.01.106-.03.153a.304.304 0 0 1-.106.125.57.57 0 0 1-.21.085c-.091.02-.206.03-.347.03-.3 0-.53-.075-.687-.227-.157-.151-.236-.374-.236-.668v-1.71h-.21a.38.38 0 0 1-.374-.387c0-.1.036-.186.109-.259a.36.36 0 0 1 .265-.109h.21v-.509c0-.117.042-.218.125-.302a.422.422 0 0 1 .313-.125c.117 0 .217.042.3.125a.414.414 0 0 1 .124.302v.51h.34c.1 0 .185.037.258.112a.372.372 0 0 1 .108.268.36.36 0 0 1-.108.264.35.35 0 0 1-.258.11h-.34v1.479c0 .131.033.224.099.278a.312.312 0 0 0 .2.082h.075c.122 0 .216.036.281.108a.38.38 0 0 1 .099.265M6.614 15.59a.412.412 0 0 1-.126.303.42.42 0 0 1-.31.125.41.41 0 0 1-.3-.125.412.412 0 0 1-.126-.303V13.08c0-.118.042-.217.125-.299a.433.433 0 0 1 .316-.122c.117 0 .217.04.298.122a.406.406 0 0 1 .123.299v2.511zM10.136 15.584c0 .104-.04.202-.118.295a.388.388 0 0 1-.31.14.48.48 0 0 1-.2-.045.362.362 0 0 1-.16-.139l-.766-1.12-.394.42v.455a.412.412 0 0 1-.125.303.42.42 0 0 1-.31.125.412.412 0 0 1-.302-.125.412.412 0 0 1-.125-.303v-3.76a.4.4 0 0 1 .125-.299.434.434 0 0 1 .316-.122c.118 0 .218.04.3.122a.407.407 0 0 1 .121.299v2.328l1.16-1.371a.39.39 0 0 1 .577-.014.396.396 0 0 1 .027.543l-.76.87.863 1.153a.417.417 0 0 1 .081.245M12.8 14.029a.861.861 0 0 0-.054-.244.721.721 0 0 0-.39-.411.853.853 0 0 0-.363-.071.826.826 0 0 0-.35.068.743.743 0 0 0-.39.407.903.903 0 0 0-.068.251H12.8zm.822.19a.383.383 0 0 1-.115.275.382.382 0 0 1-.286.12H11.2a.888.888 0 0 0 .091.294.792.792 0 0 0 .19.241c.08.068.175.122.285.163.111.041.237.061.377.061.09 0 .193-.013.309-.04.115-.028.225-.068.329-.123a.38.38 0 0 1 .42.055.31.31 0 0 1 .116.25c0 .114-.05.2-.149.259-.163.1-.34.172-.533.217a2.566 2.566 0 0 1-.587.068c-.249 0-.481-.04-.696-.122a1.633 1.633 0 0 1-.557-.347 1.582 1.582 0 0 1-.366-.542 1.85 1.85 0 0 1-.133-.713c0-.236.042-.459.126-.669.084-.21.2-.393.35-.547a1.66 1.66 0 0 1 .536-.366c.208-.09.437-.136.686-.136.185 0 .358.026.519.078a1.491 1.491 0 0 1 .781.57c.097.139.175.291.234.459.022.077.044.158.064.244.02.086.03.17.03.251zM15.916 15.665c0 .054-.01.106-.03.153a.302.302 0 0 1-.106.125.572.572 0 0 1-.21.085c-.091.02-.206.03-.347.03-.3 0-.53-.075-.687-.227-.157-.151-.236-.374-.236-.668v-1.71h-.21a.378.378 0 0 1-.373-.387c0-.1.035-.186.108-.259a.36.36 0 0 1 .265-.109h.21v-.509c0-.117.041-.218.125-.302a.424.424 0 0 1 .313-.125c.117 0 .217.042.3.125a.415.415 0 0 1 .124.302v.51h.34c.099 0 .185.037.258.112a.372.372 0 0 1 .108.268.36.36 0 0 1-.108.264.353.353 0 0 1-.258.11h-.34v1.479c0 .131.033.224.099.278a.313.313 0 0 0 .2.082h.075c.122 0 .215.036.281.108a.38.38 0 0 1 .099.265"/>
    </g>
</svg>
